<?xml version="1.0" encoding="UTF-8"?>
<svg version="1.1" xmlns="http://www.w3.org/2000/svg" width="178" height="178">
<path d="M0 0 C1.38604683 0.57226822 1.38604683 0.57226822 2.8000946 1.15609741 C5.7488287 2.37517117 8.69289656 3.60505592 11.63671875 4.8359375 C14.53178446 6.03896204 17.42780166 7.23965261 20.32443237 8.43890381 C22.22908099 9.22795135 24.1328349 10.01916218 26.03567505 10.81256104 C30.51456102 12.67272922 35.00062196 14.48649974 39.54443359 16.18261719 C40.3605864 16.48888031 41.1767392 16.79514343 42.0176239 17.11068726 C43.52488698 17.67116465 45.0358905 18.22174095 46.55134583 18.75967407 C52.02484399 20.79533966 56.773263 23.38167239 59.6796875 28.68359375 C61.1314041 34.37608246 61.05234317 40.10320891 59.13671875 45.6484375 C55.82021491 50.33728776 51.78315281 52.67753665 46.50390625 54.734375 C44.76572632 55.42043823 44.76572632 55.42043823 42.99243164 56.12036133 C41.72818653 56.60929852 40.46377767 57.0978125 39.19921875 57.5859375 C37.20321803 58.36493392 35.20815068 59.14628435 33.21321106 59.92799377 C31.80670319 60.47902239 30.39978309 61.0289998 28.99247742 61.57798767 C23.56839835 63.70072441 18.18368289 65.91038125 12.8046875 68.14453125 C10.43813989 69.11966146 8.07093231 70.09316877 5.70343018 71.065979 C4.16676067 71.70105908 2.6323342 72.34159562 1.10028076 72.98773193 C-1.05739949 73.89641181 -3.22268773 74.78409525 -5.390625 75.66796875 C-6.02490921 75.94128525 -6.65919342 76.21460175 -7.31269836 76.49620056 C-11.78020292 78.28539827 -15.02951909 78.45168239 -19.67578125 77.2109375 C-22.16009809 73.48446224 -22.30634267 70.52659812 -21.67578125 66.2109375 C-18.25356401 58.4737507 -10.45287006 56.87417769 -3.06420898 54.01269531 C-0.99691794 53.22721525 1.07140642 52.44445066 3.140625 51.6640625 C4.23769272 51.24799744 5.33476044 50.83193237 6.46507263 50.40325928 C9.93805062 49.08675065 13.41235722 47.77378991 16.88671875 46.4609375 C19.25464627 45.56403697 21.62248573 44.6669039 23.99023438 43.76953125 C29.76721338 41.58064288 35.54528471 39.39465872 41.32421875 37.2109375 C38.69769677 35.45992285 36.62761464 34.47360725 33.7043457 33.39501953 C32.76939774 33.04770782 31.83444977 32.70039612 30.87117004 32.34255981 C29.86180893 31.97170258 28.85244781 31.60084534 27.8125 31.21875 C25.67122038 30.42318671 23.52994446 29.62761348 21.38867188 28.83203125 C18.01649113 27.5845278 14.64375656 26.33853578 11.27075195 25.09326172 C8.01244004 23.88881712 4.75617385 22.67896052 1.5 21.46875 C0.50076004 21.10194122 -0.49847992 20.73513245 -1.52799988 20.35720825 C-18.52636755 14.03466717 -18.52636755 14.03466717 -21.67578125 7.2109375 C-22.31407828 2.89834091 -22.15751088 -0.06646805 -19.67578125 -3.7890625 C-12.82137978 -6.07386299 -6.30144888 -2.65581045 0 0 Z " fill="#1F9ADD" transform="translate(24.67578125,52.7890625)"/>
<path d="M0 0 C1.17366875 -0.01007584 1.17366875 -0.01007584 2.37104797 -0.02035522 C4.96048311 -0.03936991 7.54965952 -0.04326121 10.13916016 -0.04541016 C11.93893542 -0.0518359 13.73870962 -0.0585641 15.53848267 -0.06558228 C19.31295188 -0.07756387 23.08732951 -0.08126222 26.86181641 -0.08007812 C31.69636551 -0.07987494 36.53032676 -0.10717278 41.36473656 -0.14162254 C45.08282158 -0.16387054 48.80076468 -0.16791631 52.51890945 -0.16685867 C54.30109304 -0.16921797 56.08328035 -0.17805997 57.86539841 -0.19352341 C60.35990176 -0.21314043 62.85313198 -0.2073628 65.34765625 -0.1953125 C66.08237656 -0.20655151 66.81709686 -0.21779053 67.57408142 -0.22937012 C71.20593986 -0.18483237 73.17748068 0.20952966 76.26113892 2.19589233 C78.30322266 4.29052734 78.30322266 4.29052734 78.93212891 6.29052734 C78.89925781 7.28052734 78.89925781 7.28052734 78.86572266 8.29052734 C78.86701172 8.95052734 78.86830078 9.61052734 78.86962891 10.29052734 C78.02191389 13.2838383 76.76581719 14.38695891 74.30322266 16.29052734 C71.49597627 16.68008237 69.08249901 16.82805823 66.27758789 16.79223633 C65.47227631 16.79763931 64.66696472 16.8030423 63.83724976 16.80860901 C61.17839683 16.82110488 58.52062481 16.80460159 55.86181641 16.78662109 C54.01383914 16.78677605 52.16586155 16.78826442 50.31788635 16.79103088 C46.4467226 16.79241521 42.5759292 16.7798501 38.70483398 16.75708008 C33.73901192 16.72867545 28.77380435 16.73143768 23.80793667 16.74417019 C19.99297318 16.75111924 16.17815216 16.74334729 12.36320686 16.73091316 C10.53194792 16.72639253 8.70067372 16.72606719 6.86941338 16.72997856 C4.31244324 16.73288373 1.75632542 16.7164184 -0.80053711 16.69458008 C-1.5595784 16.69908173 -2.31861969 16.70358337 -3.10066223 16.70822144 C-8.19834018 16.63575221 -8.19834018 16.63575221 -10.63951111 14.94496155 C-12.26008124 12.40905663 -12.51767426 10.27557881 -12.69677734 7.29052734 C-10.76853135 0.22029204 -6.56678077 -0.00805658 0 0 Z " fill="#1F9ADD" transform="translate(97.69677734375,142.70947265625)"/>
</svg>
